<?xml version="1.0" encoding="utf-8"?>
<!-- Generator: Adobe Illustrator 24.2.0, SVG Export Plug-In . SVG Version: 6.00 Build 0)  -->
<svg version="1.1" id="Icons" xmlns="http://www.w3.org/2000/svg" xmlns:xlink="http://www.w3.org/1999/xlink" x="0px" y="0px"
	 viewBox="0 0 232 232" style="enable-background:new 0 0 232 232;" xml:space="preserve">
<style type="text/css">
	.st0{fill:none;stroke:#000000;stroke-width:7;stroke-linecap:round;stroke-linejoin:round;stroke-miterlimit:10;}
</style>
<g>
	<path class="st0" d="M208.5,228.5h-185c-11,0-20-9-20-20v-185c0-11,9-20,20-20h185c11,0,20,9,20,20v185
		C228.5,219.5,219.5,228.5,208.5,228.5z"/>
</g>
<g>
	<path d="M109.4,149.7c-0.1-7,0.3-13.3,1.4-19c1.1-5.7,4.1-11.2,9-16.4c2.8-2.9,5.7-5.8,8.7-8.6c3-2.8,5.8-5.6,8.4-8.5
		c2.5-2.9,4.7-5.8,6.4-8.8c1.7-3,2.6-6.3,2.6-9.9c0-3.4-0.7-6.6-2-9.6c-1.3-3-3.3-5.6-5.8-7.8c-2.5-2.2-5.7-4-9.3-5.2
		c-3.7-1.3-7.9-1.9-12.6-1.9c-4.7,0-8.9,0.8-12.6,2.5c-3.7,1.6-6.8,3.9-9.3,6.8c-2.5,2.9-4.4,6.3-5.6,10.2
		c-1.3,3.9-1.8,8.1-1.7,12.6H75.6c-0.5-6.3,0.2-12.1,2.1-17.3c1.9-5.2,4.7-9.7,8.5-13.4c3.7-3.7,8.2-6.6,13.4-8.7
		c5.2-2,10.9-3,17.1-3c6.5,0,12.3,0.9,17.4,2.6c5.1,1.7,9.5,4.1,13,7.2c3.5,3.1,6.3,6.9,8.2,11.3c1.9,4.4,2.9,9.3,2.9,14.6
		c0,5.6-1.2,10.4-3.7,14.4c-2.5,4-5.5,7.7-9,11.1c-3.6,3.4-7.2,6.9-11,10.4c-3.8,3.5-7.1,7.4-9.9,11.7c-2.2,3.3-3.4,6.9-3.6,10.9
		c-0.3,4-0.4,7.9-0.4,11.7H109.4z M108.3,184.4v-16.7h13.9v16.7H108.3z"/>
</g>
</svg>
