<?xml version="1.0" encoding="utf-8"?>
<!-- Generator: Adobe Illustrator 24.2.0, SVG Export Plug-In . SVG Version: 6.00 Build 0)  -->
<svg version="1.1" id="Icons" xmlns="http://www.w3.org/2000/svg" xmlns:xlink="http://www.w3.org/1999/xlink" x="0px" y="0px"
	 viewBox="0 0 232 232" style="enable-background:new 0 0 232 232;" xml:space="preserve">
<style type="text/css">
	.st0{fill:none;stroke:#FF0000;stroke-width:7;stroke-linecap:round;stroke-linejoin:round;stroke-miterlimit:10;}
</style>
<g>
	<path class="st0" d="M208.5,228.5h-185c-11,0-20-9-20-20v-185c0-11,9-20,20-20h185c11,0,20,9,20,20v185
		C228.5,219.5,219.5,228.5,208.5,228.5z"/>
	<g>
		<g>
			<path class="st0" d="M95.6,47H83.1c-6.9,0-12.5,5.6-12.5,12.5v3.1v103.5"/>
			<polyline class="st0" points="152.1,72.1 152.1,66.3 152.1,65.8 			"/>
			<path class="st0" d="M95.6,47h3.1H127h25.1h12.6c6.9,0,12.5,5.6,12.5,12.5v6.7h-25.1"/>
			<path class="st0" d="M164.6,47c-6.9,0-12.6,5.6-12.6,12.5v6.3"/>
			<path class="st0" d="M139.5,185c-6.9,0-12.5-5.6-12.5-12.5v-6.3H70.5H58c-1.7,0-3.1,1.4-3.1,3.1v3.1c0,6.9,5.6,12.5,12.5,12.5
				L139.5,185c6.9-0.1,12.5-5.7,12.5-12.6v-3.1v-91V72"/>
		</g>
	</g>
</g>
</svg>
