<?xml version="1.0" encoding="utf-8"?>
<!-- Generator: Adobe Illustrator 24.2.0, SVG Export Plug-In . SVG Version: 6.00 Build 0)  -->
<svg version="1.1" id="Icons" xmlns="http://www.w3.org/2000/svg" xmlns:xlink="http://www.w3.org/1999/xlink" x="0px" y="0px"
	 viewBox="0 0 232 232" style="enable-background:new 0 0 232 232;" xml:space="preserve">
<style type="text/css">
	.st0{fill:none;stroke:#000000;stroke-width:7;stroke-linecap:round;stroke-linejoin:round;stroke-miterlimit:10;}
</style>
<g>
	<path class="st0" d="M208.5,228.5h-185c-11,0-20-9-20-20v-185c0-11,9-20,20-20h185c11,0,20,9,20,20v185
		C228.5,219.5,219.5,228.5,208.5,228.5z"/>
	<g>
		<path class="st0" d="M163.7,100.7v48c0,21.7-17.6,39.3-39.3,39.3h-16.8c-21.7,0-39.3-17.6-39.3-39.3v-47.4"/>
		<path class="st0" d="M68.3,101.3V55.9c0-6.6,5.3-11.9,11.9-11.9l0,0c6.6,0,11.9,5.3,11.9,11.9v45.4"/>
		<path class="st0" d="M139.8,101.3V55.9c0-6.6,5.3-11.9,11.9-11.9l0,0c6.6,0,11.9,5.3,11.9,11.9v45.4"/>
		<path class="st0" d="M92.2,113.6V91.4c0-6.6,5.3-11.9,11.9-11.9l0,0c6.6,0,11.9,5.3,11.9,11.9v6.1"/>
		<path class="st0" d="M116,115.3V91.4c0-6.6,5.3-11.9,11.9-11.9l0,0c6.6,0,11.9,5.3,11.9,11.9v29c0,6.6-5.3,11.9-11.9,11.9l0,0
			c-2.5,0-4.8-0.8-6.7-2"/>
		<path class="st0" d="M68.3,127.6c0-7.7,6.3-14,14-14h27.6c6.6,0,11.9,5.3,11.9,11.9l0,0c0,6.6-5.3,11.9-11.9,11.9H91.3"/>
		<path class="st0" d="M105,137.4c7.1,0,12.9,5.8,12.9,12.9v8.4"/>
	</g>
</g>
</svg>
