<?xml version="1.0" encoding="utf-8"?>
<!-- Generator: Adobe Illustrator 24.2.0, SVG Export Plug-In . SVG Version: 6.00 Build 0)  -->
<svg version="1.1" id="Icons" xmlns="http://www.w3.org/2000/svg" xmlns:xlink="http://www.w3.org/1999/xlink" x="0px" y="0px"
	 viewBox="0 0 232 232" style="enable-background:new 0 0 232 232;" xml:space="preserve">
<style type="text/css">
	.st0{fill:none;stroke:#FF0000;stroke-width:7;stroke-linecap:round;stroke-linejoin:round;stroke-miterlimit:10;}
</style>
<g>
	<path class="st0" d="M208.5,228.5h-185c-11,0-20-9-20-20v-185c0-11,9-20,20-20h185c11,0,20,9,20,20v185
		C228.5,219.5,219.5,228.5,208.5,228.5z"/>
	<g id="scissor_1_">
		<line class="st0" x1="117.8" y1="142.2" x2="129.1" y2="155.3"/>
		<path class="st0" d="M116,104.5L68.6,44c-8.3,15.2-6.1,34.6,5.3,47.1l27.1,31.4"/>
		<line class="st0" x1="145.5" y1="142.2" x2="132.4" y2="125.5"/>
		<path class="st0" d="M88.2,142.2L165,44c8.3,15.2,6.1,34.6-5.3,47.1l-56.9,67.4"/>
		<path class="st0" d="M117.6,120.9c0.9,0,1.6,0.7,1.6,1.6s-0.7,1.6-1.6,1.6s-1.6-0.7-1.6-1.6S116.7,120.9,117.6,120.9"/>
		<circle class="st0" cx="80" cy="165.1" r="22.9"/>
		<circle class="st0" cx="80" cy="165.1" r="9.8"/>
		<circle class="st0" cx="152" cy="165.1" r="22.9"/>
		<circle class="st0" cx="152" cy="165.1" r="9.8"/>
	</g>
</g>
</svg>
